<?xml version="1.0" encoding="UTF-8"?>
<svg width="256" height="256" version="1.1" viewBox="0 0 256 256" xmlns="http://www.w3.org/2000/svg">
 <g transform="matrix(6.0758 0 0 6.0758 58.262 2.1937)">
  <g transform="matrix(1.3333 0 0 1.3333 -455.01 -30.947)" fill="#8b6f47">
   <g transform="translate(341.25 40.445)">
    <path d="m4.3438-2.7031c-0.8125 0-1.6094 0.25-2.3125 0.67188-0.9375 0.5625-2.0312 1.5469-2.0312 2.9688 0 1.2188 1.0625 1.7656 2.1562 1.7656 0.8125 0 1.6094-0.25 2.3125-0.67188 0.9375-0.5625 2.0312-1.5469 2.0312-2.9688 0-1.2188-1.0625-1.7656-2.1562-1.7656z" fill="#8b6f47"/>
   </g>
   <g transform="translate(347.75 23.21)">
    <path d="m0 0h-0.3125v4.9844h0.3125c1.4219 1.4844 3.2812 3.5781 3.2812 5.6406 0 1.3125-0.3125 2.6094-0.82812 3.8125-0.0625 0.32812 0.20312 0.54688 0.45312 0.54688 0.14062 0 0.29688-0.07813 0.40625-0.25 0.51562-1.3125 0.8125-2.7031 0.8125-4.1094 0-3.9375-4.125-6.7031-4.125-10.625z" fill="#8b6f47"/>
   </g>
  </g>
  <g transform="matrix(1.3333 0 0 1.3333 -457.77 -30.947)" fill="#8b6f47">
   <g transform="translate(354.04 37.954)" fill="#8b6f47">
    <path d="m4.3438-2.7031c-0.8125 0-1.6094 0.25-2.3125 0.67188-0.9375 0.5625-2.0312 1.5469-2.0312 2.9688 0 1.2188 1.0625 1.7656 2.1562 1.7656 0.8125 0 1.6094-0.25 2.3125-0.67188 0.9375-0.5625 2.0312-1.5469 2.0312-2.9688 0-1.2188-1.0625-1.7656-2.1562-1.7656z" fill="#8b6f47"/>
   </g>
  </g>
  <path d="m14.643 20.998v20.064" fill="none" stroke="#8b6f47" stroke-linecap="round" stroke-width=".7"/>
  <path d="m8.2865 0.35052v20.995" fill="none" stroke="#8b6f47" stroke-linecap="round" stroke-width=".7"/>
 </g>
</svg>
